<?xml version="1.0" standalone="no"?>
<!DOCTYPE svg PUBLIC "-//W3C//DTD SVG 20010904//EN"
 "http://www.w3.org/TR/2001/REC-SVG-20010904/DTD/svg10.dtd">
<svg version="1.0" xmlns="http://www.w3.org/2000/svg"
 width="512.000000pt" height="512.000000pt" viewBox="0 0 512.000000 512.000000"
 preserveAspectRatio="xMidYMid meet">

<g transform="translate(0.000000,512.000000) scale(0.100000,-0.100000)"
fill="#000000" stroke="none">
<path d="M497 5110 c-138 -18 -284 -107 -374 -228 -69 -93 -100 -166 -113
-265 -13 -105 -13 -4012 0 -4113 19 -148 103 -288 228 -381 93 -69 166 -100
265 -113 105 -13 4012 -13 4113 0 148 19 288 103 381 228 69 93 100 166 113
265 13 105 13 4012 0 4113 -19 148 -103 288 -228 381 -93 69 -166 100 -265
113 -95 12 -4027 12 -4120 0z m2183 -286 c60 -19 136 -78 177 -138 114 -166
66 -406 -102 -512 l-45 -29 0 -257 0 -258 -67 0 c-38 0 -105 3 -150 7 l-83 6
0 251 0 251 -45 29 c-55 34 -107 95 -137 162 -19 40 -23 66 -23 144 0 82 4
103 27 152 80 172 264 250 448 192z m-789 -513 c89 -34 176 -92 250 -166 70
-69 81 -93 54 -115 -8 -6 -77 -24 -155 -39 -127 -25 -180 -41 -137 -41 24 0
160 -64 175 -82 7 -9 10 -23 6 -31 -14 -37 -220 -72 -335 -57 -78 9 -212 60
-268 100 -51 37 -70 38 -103 3 -36 -38 -42 -66 -24 -102 71 -137 445 -225
1101 -261 616 -33 679 -40 924 -101 322 -81 471 -200 471 -376 0 -129 -72
-235 -209 -307 -79 -40 -251 -98 -376 -125 -94 -21 -366 -61 -410 -61 l-25 0
0 143 c0 157 3 167 57 167 52 0 229 28 323 51 134 34 227 91 218 135 -12 66
-231 116 -570 131 l-148 6 0 -471 0 -471 -27 5 c-16 3 -82 15 -148 27 l-120
23 -3 445 -2 446 -130 7 c-162 8 -459 48 -605 81 -165 38 -256 70 -402 140
-213 104 -286 192 -287 345 -1 249 139 427 414 526 112 40 201 54 325 50 83
-2 124 -9 166 -25z m397 -1647 c2 -113 -1 -154 -10 -161 -7 -5 -67 -17 -133
-26 -244 -34 -394 -104 -332 -156 41 -33 407 -119 882 -206 183 -34 450 -100
549 -137 120 -44 213 -96 279 -158 71 -65 96 -115 97 -189 0 -112 -65 -187
-233 -270 -147 -72 -499 -174 -543 -157 -11 4 -14 31 -14 126 0 139 -11 124
125 161 88 23 207 75 244 106 68 56 -55 123 -326 178 -68 14 -133 25 -144 25
-18 0 -19 -12 -19 -425 0 -234 -3 -425 -7 -425 -5 0 -62 11 -128 26 -66 14
-130 27 -142 30 l-23 4 0 419 0 418 -167 27 c-497 82 -749 192 -829 361 -106
224 124 446 553 536 119 24 271 48 298 46 19 -2 20 -10 23 -153z m-3 -1424 c0
-123 0 -125 -24 -135 -115 -47 -137 -72 -101 -111 51 -54 188 -102 402 -140
221 -40 346 -85 463 -168 75 -54 105 -88 140 -160 36 -73 36 -139 2 -174 -35
-35 -65 -24 -117 43 -24 31 -59 68 -79 84 -40 31 -191 107 -233 117 l-28 6 0
-106 c0 -121 -10 -149 -65 -191 -65 -51 -162 -30 -212 45 -21 30 -23 44 -23
175 l0 143 -97 17 c-273 49 -488 146 -548 249 -19 32 -25 57 -25 100 0 119 75
195 260 262 86 32 248 74 270 71 12 -2 15 -24 15 -127z"/>
<path d="M1678 4172 c-35 -21 -36 -47 -2 -69 56 -36 174 -11 174 37 0 45 -117
67 -172 32z"/>
</g>
</svg>
